<svg fill="#303030" xmlns="http://www.w3.org/2000/svg" xmlns:xlink="http://www.w3.org/1999/xlink" version="1.1" x="0px" y="0px" viewBox="0 0 100 100" style="enable-background:new 0 0 100 100;" xml:space="preserve"><g><path d="M16.5,86.5c0.3,0,0.6,0,0.8-0.1l20.9-6.1c1.1-0.3,2.2-0.9,3-1.8l43.1-43.1c1.3-1.3,2-3.1,2-5c0-1.9-0.7-3.6-2-4.9l-9.9-9.9   c-2.7-2.7-7.2-2.7-9.9,0L21.5,58.7c-0.8,0.8-1.4,1.9-1.8,3l-6.1,20.9c-0.3,1,0,2.2,0.8,3C15,86.2,15.8,86.5,16.5,86.5z M57.4,31.3   l11.3,11.3L39,72.3L27.7,61L57.4,31.3z M68.9,19.8c0.2-0.2,0.5-0.3,0.7-0.3c0.3,0,0.5,0.1,0.7,0.3l9.9,9.9c0.2,0.3,0.3,0.6,0.3,0.7   s0,0.5-0.3,0.7L73,38.3L61.7,27L68.9,19.8z M24.6,66.3l9,9l-12.7,3.7L24.6,66.3z"></path></g></svg>